<svg xmlns="http://www.w3.org/2000/svg" width="2328.46" height="516.73" viewBox="0 0 468.41 103.94"><!-- Image Source https://worldvectorlogo.com/logo/playstation-4 https://commons.wikimedia.org/wiki/File:PlayStation_3_Logo_neu.svg --><path d="M50.37 0a190.83 190.83 0 0 1 17.35 4.26c3.28.95 6.55 1.94 9.8 2.99 5.1 1.62 10.18 3.46 14.8 6.2a29.2 29.2 0 0 1 5.75 4.42 21.96 21.96 0 0 1 4.46 6.25c2.01 4.2 2.7 8.9 2.9 13.53.1 3.02.1 6.06-.47 9.04a21.25 21.25 0 0 1-2.68 7.38 13.38 13.38 0 0 1-4.98 4.8 13.17 13.17 0 0 1-6.49 1.54c-3.4.03-6.7-1.05-9.75-2.47-.06-10.16-.01-20.31-.03-30.46-.02-1.84.1-3.7-.27-5.5a6.45 6.45 0 0 0-1.93-3.78 5.62 5.62 0 0 0-2.63-1.23 2.7 2.7 0 0 0-2.59 1c-.99 1.24-1.25 2.88-1.3 4.42 0 27.18.02 54.36 0 81.54a29319.95 29319.95 0 0 1-21.94-6.96V0zM17.51 68.77c9.53-3.38 19.05-6.79 28.59-10.15v11.23c0 .51.03 1.02-.03 1.53-7.54 2.67-15.06 5.39-22.6 8.08-1.04.39-2.1.84-2.91 1.63-.38.38-.68.93-.48 1.47.26.63.9.97 1.5 1.23 1.65.67 3.45.77 5.21.85a25.12 25.12 0 0 0 9.65-1.76l9.65-3.5c.03 3.17 0 6.34.01 9.51 0 .63.03 1.27-.03 1.9a71.54 71.54 0 0 1-35.9-2.35 21.57 21.57 0 0 1-7.14-3.3A8.1 8.1 0 0 1 .3 81.73a4.71 4.71 0 0 1 .14-3.67 7 7 0 0 1 2.49-2.72 41.7 41.7 0 0 1 7.61-3.99c2.28-.97 4.64-1.73 6.97-2.57z"/><path d="M94.21 64.51c2.16-.25 4.34-.3 6.51-.38 7.15.02 14.34.91 21.18 3.06 1.34.4 2.64.94 3.98 1.36 2.38.87 4.77 1.93 6.68 3.64 1.14 1.05 2.13 2.46 2.14 4.06a5.06 5.06 0 0 1-1.37 3.53c-1.62 1.82-3.75 3.06-5.9 4.15-2.28 1.16-4.73 1.91-7.13 2.8l-43.83 15.74V90.2c.02-.16-.07-.45.16-.5 11.12-3.95 22.23-7.91 33.35-11.88 1.5-.56 3.12-.97 4.4-1.99.52-.41 1.03-1.06.77-1.77-.26-.61-.9-.95-1.49-1.2a15.33 15.33 0 0 0-5.25-.84c-2.77.02-5.56.36-8.2 1.25-7.92 2.77-15.82 5.58-23.74 8.35V68.44a81.69 81.69 0 0 1 17.74-3.93zm265-44.51h-39.8c-12.28 0-18.3 7.58-18.3 17.43v29.93c0 6.1-2.88 10.5-8.98 10.5h-34.81c-.25 0-.45.2-.45.43v6.04c0 .25.2.45.45.45h39.4c12.28 0 18.3-7.55 18.3-17.4V37.43c0-6.11 2.87-10.51 9-10.51h35.2c.27 0 .48-.2.48-.45v-6.02c0-.24-.21-.45-.49-.45zm-117.17 0h-76.6a.46.46 0 0 0-.48.45v6.02c0 .25.2.46.48.46h72c6.08 0 8.97 4.39 8.97 10.5 0 6.1-2.89 10.47-8.98 10.47h-56.95c-8.84 0-15.52 7.43-15.52 17.29V84.3c0 .27.2.47.48.47h12.98c.26 0 .47-.2.47-.47V65.2c0-6.08 3.5-10.37 8.56-10.37h54.6c12.24 0 18.25-7.53 18.25-17.38 0-9.84-6-17.44-18.26-17.44zM462.7 51.58a.55.55 0 0 1 0-.7c3.82-3.17 5.71-7.93 5.71-13.44 0-9.84-6-17.44-18.28-17.44h-76.58a.46.46 0 0 0-.45.47v6c0 .25.19.46.45.46h71.98c6.07 0 9 4.39 9 10.5 0 6.1-2.91 10.47-9 10.47h-.09l-71.89.02c-.26 0-.45.19-.45.46v6c0 .25.19.44.45.44h71.98c7.94.1 8.98 7.82 8.98 11.78l.02.74c0 6.13-2.93 10.54-9 10.54h-71.98c-.26 0-.45.18-.45.43v6.02c0 .25.19.45.45.45h76.58c12.3 0 18.28-8.16 18.28-17.44v-.74c0-5.92-1.89-11.57-5.7-15.02z"/></svg>
